<svg width="500" height="500" viewBox="0 0 500 500" fill="none" xmlns="http://www.w3.org/2000/svg">
<g clip-path="url(#clip0_2010_20)">
<path d="M346.68 110.646C346.746 95.7309 346.871 80.4671 352.053 66.445C358.215 49.8495 370.891 36.6255 383.243 23.9588L404.094 2.62833C407.003 -0.601443 410.255 -3.50402 413.793 -6.02781C414.785 -6.67864 416.024 -7.28818 417.123 -6.83344C417.821 -6.47154 418.366 -5.87257 418.662 -5.1443C420.269 -1.9127 419.9 2.02594 418.517 5.36331C417.134 8.70067 414.835 11.5621 412.573 14.3788L387.44 45.6724L408.342 30.3469C412.207 27.514 415.454 23.7524 419.225 20.772C420.979 19.3909 423.674 16.8156 426.035 16.6637C433.079 16.2211 426.046 30.9486 424.6 33.4297C421.784 38.1266 418.386 42.4489 414.487 46.2938C407.3 53.4965 398.875 59.2656 390.438 65.0286L424.426 48.615C427.037 47.2148 429.812 46.1425 432.686 45.4221C434.49 45.0398 436.835 45.179 437.628 46.8835C437.901 47.5713 437.978 48.3214 437.85 49.0503C437.357 52.9999 434.782 56.3485 432.043 59.2248C423.377 68.327 412.307 74.7069 401.393 80.9584C411.45 79.0546 421.619 77.7939 431.837 77.184C438.306 76.8242 435.751 81.8171 432.72 84.5514C427.831 88.9642 422.035 92.2532 415.74 94.1875C409.952 95.9938 401.63 98.2134 395.543 97.5091C403.331 98.4087 411.058 99.7683 418.685 101.581C421.197 102.17 424.197 103.373 424.43 105.939C424.613 107.992 422.862 109.658 421.159 110.788C413.568 115.958 404.42 118.334 395.273 117.512C399.999 118.932 404.978 120.592 407.919 124.525C410.861 128.459 410.173 135.386 405.498 136.891C403.063 137.683 400.437 136.826 398.033 135.967L381.409 130.09C387.381 134.01 393.008 138.432 398.229 143.308C399.351 144.347 400.555 145.803 400.029 147.245C399.682 147.998 399.063 148.591 398.297 148.904C393.087 151.431 387.087 147.987 382.341 144.68C383.193 147.136 385.18 148.987 386.428 151.306C387.677 153.625 387.806 156.988 385.555 158.309C384.766 158.684 383.885 158.82 383.02 158.7C382.155 158.581 381.344 158.212 380.686 157.637C379.385 156.472 378.325 155.063 377.565 153.491C371.979 143.673 365.921 134.131 359.391 124.866C355.761 119.616 351.843 114.423 346.68 110.646Z" fill="#106DA3" stroke="#263238" stroke-miterlimit="10"/>
<path d="M378.969 65.6829C382.799 62.5341 386.552 59.3483 390.283 56.128C394.014 52.9077 397.696 49.6406 401.286 46.2891C404.876 42.9377 408.479 39.5608 411.982 36.1124C415.486 32.664 418.937 29.1276 422.459 25.6411C419.572 29.6656 416.446 33.5136 413.099 37.1647C411.47 39.0313 409.705 40.7762 407.996 42.5647C406.288 44.3532 404.452 46.0484 402.632 47.7276C398.989 51.1081 395.191 54.2881 391.252 57.3054C387.349 60.3686 383.246 63.1673 378.969 65.6829Z" fill="#263238"/>
<path d="M374.576 51.7957C377.424 47.8018 380.495 43.9 383.548 40.0365C386.6 36.1729 389.73 32.378 392.843 28.5674C395.956 24.7569 399.133 21.0088 402.304 17.2418C405.475 13.4749 408.668 9.7424 411.67 5.85414C409.266 10.1703 406.541 14.2997 403.518 18.2075C400.587 22.1771 397.493 26.0128 394.386 29.8422C391.279 33.6716 388.022 37.3416 384.743 41.0403C381.464 44.739 378.076 48.3379 374.576 51.7957Z" fill="#263238"/>
<path d="M386.655 79.0527C393.996 74.7387 401.459 70.7427 408.793 66.5902C412.49 64.5246 416.156 62.4277 419.773 60.2524C423.389 58.0771 426.977 55.8484 430.439 53.3777C427.454 56.4576 424.153 59.2135 420.589 61.5993C418.903 62.8404 417.05 63.9697 415.249 65.1237C413.448 66.2777 411.601 67.331 409.748 68.3654C406.022 70.4408 402.248 72.4062 398.392 74.1985C394.536 75.9909 390.673 77.6379 386.655 79.0527Z" fill="#263238"/>
<path d="M385.502 92.3017C389.056 91.4397 392.611 90.704 396.167 90L406.825 87.9546C410.394 87.32 413.928 86.6131 417.477 85.9218C421.027 85.2306 424.56 84.5237 428.045 83.4632C424.808 85.1745 421.385 86.5073 417.843 87.4354C414.333 88.452 410.775 89.2414 407.2 89.9203C403.625 90.5992 400.023 91.1393 396.407 91.5468C392.788 91.9869 389.148 92.2389 385.502 92.3017Z" fill="#263238"/>
<path d="M380.302 107.061C383.024 107.313 385.707 107.631 388.377 107.944C391.047 108.256 393.71 108.581 396.37 108.833C399.029 109.086 401.698 109.303 404.376 109.486C407.053 109.669 409.729 109.662 412.448 109.66C409.822 110.453 407.107 110.918 404.366 111.045C401.633 111.166 398.895 111.094 396.172 110.828C393.459 110.535 390.765 110.084 388.104 109.477C385.439 108.897 382.828 108.089 380.302 107.061Z" fill="#263238"/>
<path d="M376.655 119.281C378.838 119.755 380.995 120.343 383.118 121.04C385.242 121.7 387.319 122.472 389.397 123.244C391.474 124.016 393.515 124.864 395.556 125.744C397.597 126.624 399.572 127.526 401.642 128.459C399.398 128.296 397.18 127.88 395.03 127.218C392.875 126.621 390.776 125.878 388.689 125.109C386.602 124.34 384.567 123.448 382.56 122.482C380.523 121.547 378.55 120.477 376.655 119.281Z" fill="#263238"/>
<path d="M373.599 132.534C375.306 133.312 376.968 134.184 378.58 135.146C380.185 136.092 381.759 137.07 383.302 138.08C384.845 139.091 386.373 140.13 387.887 141.2L392.461 144.408C390.591 144.051 388.783 143.423 387.094 142.544C385.406 141.722 383.774 140.789 382.209 139.751C380.646 138.722 379.138 137.613 377.691 136.428C376.219 135.247 374.851 133.945 373.599 132.534Z" fill="#263238"/>
<path d="M393.864 97.0329C393.501 93.6344 384.517 95.7766 384.517 95.7766C386.904 94.3959 389.214 92.8846 391.435 91.2496C394.792 88.7201 401.815 83.1829 399.47 79.1063C397.124 75.0298 381.306 84.7182 381.306 84.7182C381.306 84.7182 386.534 79.8037 391.951 73.7863C410.007 53.7641 377.404 70.6923 377.404 70.6923C377.404 70.6923 386.883 59.7839 390.33 54.8308C401.22 39.2312 370.311 60.0066 370.311 60.0066C370.311 60.0066 381.378 45.1923 378.785 44.4931C376.193 43.794 369.969 48.1861 369.969 48.1861C369.969 48.1861 384.655 25.9246 384.512 22.7354L383.259 24.006C370.911 36.6822 358.215 49.8495 352.066 66.4828C346.871 80.4671 346.746 95.7309 346.693 110.684C351.846 114.464 355.755 119.66 359.43 124.884C359.845 125.471 360.241 126.064 360.643 126.644L365.812 124.946C365.812 124.946 375.594 128.063 378.431 125.227C381.268 122.39 372.471 115.397 372.471 115.397C372.471 115.397 386.951 120.038 388.288 116.262C389.624 112.486 377.241 108.154 377.241 108.154C380.381 107.44 383.458 106.475 386.444 105.269C390.53 103.471 394.222 100.444 393.864 97.0329Z" fill="white" stroke="#263238" stroke-miterlimit="10"/>
<path d="M360.274 69.4891C360.274 69.4891 366.828 68.2744 367.285 70.2328C367.742 72.1912 360.734 77.4056 360.734 77.4056C360.734 77.4056 371.158 76.1821 371.656 80.2114C372.154 84.2407 362.669 87.8691 362.669 87.8691C362.669 87.8691 369.117 91.2002 368.615 94.6661C368.113 98.132 361.984 98.924 361.984 98.924C361.984 98.924 367.123 103.916 365.753 106.74C364.383 109.565 357.856 108.781 357.856 108.781" fill="white"/>
<path d="M360.274 69.4891C360.274 69.4891 366.828 68.2744 367.285 70.2328C367.742 72.1912 360.734 77.4056 360.734 77.4056C360.734 77.4056 371.158 76.1821 371.656 80.2114C372.154 84.2407 362.669 87.8691 362.669 87.8691C362.669 87.8691 369.117 91.2002 368.615 94.6661C368.113 98.132 361.984 98.924 361.984 98.924C361.984 98.924 367.123 103.916 365.753 106.74C364.383 109.565 357.856 108.781 357.856 108.781" stroke="#263238" stroke-miterlimit="10"/>
<path d="M206.009 159.795C196.697 148.207 187.097 136.274 174.341 128.547C159.211 119.41 141.039 116.971 123.507 114.7L93.948 110.896C89.6686 110.183 85.3245 109.937 80.9918 110.161C79.8136 110.273 78.4635 110.562 77.891 111.596C77.569 112.313 77.5115 113.121 77.7288 113.875C78.48 117.415 81.2153 120.266 84.3737 122.018C87.6022 123.623 91.0411 124.764 94.5885 125.407L133.74 134.288L107.807 135.26C103.012 135.441 98.1396 134.517 93.3263 134.524C91.0936 134.526 87.38 134.195 85.4451 135.543C79.6558 139.573 94.306 146.748 96.9908 147.775C102.112 149.711 107.459 150.987 112.903 151.571C123.015 152.742 133.234 152.024 143.386 151.297L106.564 159.569C103.649 160.098 100.809 160.98 98.1077 162.195C96.4607 163.031 94.7054 164.593 95.1415 166.4C95.3646 167.101 95.7862 167.723 96.3555 168.191C99.1849 170.977 103.286 172 107.215 172.553C119.671 174.287 132.314 172.411 144.742 170.524C135.693 175.281 126.956 180.609 118.585 186.476C113.298 190.215 118.402 192.541 122.472 192.802C129.018 193.221 135.577 192.213 141.696 189.849C147.353 187.665 155.252 184.227 159.589 179.886C154.045 185.436 148.833 191.308 143.98 197.472C142.385 199.496 140.784 202.295 142.167 204.451C143.295 206.177 145.71 206.397 147.732 206.215C156.892 205.553 165.536 201.727 172.186 195.394C169.408 199.438 166.514 203.85 166.646 208.747C166.778 213.644 171.639 218.658 176.226 216.929C178.629 216.043 180.157 213.735 181.512 211.571L190.895 196.632C188.653 203.405 186.988 210.356 185.919 217.41C185.694 218.927 185.65 220.816 186.966 221.619C187.705 222.002 188.564 222.083 189.363 221.846C195.002 220.589 197.568 214.163 199.234 208.621C200.089 211.087 199.673 213.761 200.141 216.362C200.608 218.962 202.596 221.67 205.178 221.304C206.029 221.105 206.803 220.663 207.407 220.033C208.011 219.402 208.42 218.61 208.582 217.752C208.874 216.013 208.821 214.233 208.427 212.514C206.673 201.352 205.49 190.12 204.879 178.816C204.509 172.498 204.329 165.999 206.009 159.795Z" fill="#106DA3" stroke="#263238" stroke-miterlimit="10"/>
<path d="M152.768 144.687C147.802 144.61 142.87 144.458 137.972 144.231C133.045 144.003 128.134 143.758 123.234 143.362C118.333 142.966 113.42 142.532 108.531 142.047C103.642 141.563 98.7417 140.891 93.8143 140.357C98.5798 141.722 103.422 142.802 108.316 143.593C110.756 144.038 113.223 144.315 115.678 144.649C118.133 144.983 120.612 145.171 123.081 145.363C128.044 145.758 132.986 145.875 137.95 145.784C142.908 145.748 147.859 145.381 152.768 144.687Z" fill="#263238"/>
<path d="M147.61 131.066C142.86 129.728 138.07 128.553 133.278 127.431C128.486 126.31 123.679 125.267 118.872 124.225C114.065 123.183 109.249 122.207 104.424 121.234C99.599 120.262 94.7644 119.292 90.0002 118.129C94.5687 120.031 99.2752 121.583 104.079 122.772C108.845 124.062 113.643 125.139 118.482 126.244C123.321 127.349 128.132 128.189 132.994 129.022C137.855 129.855 142.705 130.534 147.61 131.066Z" fill="#263238"/>
<path d="M155.072 159.934C146.633 161.115 138.312 162.636 129.994 163.922C125.828 164.605 121.645 165.241 117.461 165.782C113.278 166.322 109.087 166.813 104.82 166.991C109.068 167.551 113.363 167.662 117.635 167.32C119.772 167.224 121.884 166.968 124.004 166.762C126.123 166.556 128.238 166.214 130.334 165.879C134.541 165.192 138.715 164.38 142.859 163.387C147.002 162.394 151.047 161.33 155.072 159.934Z" fill="#263238"/>
<path d="M164.205 169.605C160.89 171.126 157.646 172.759 154.425 174.426L144.799 179.448C141.616 181.166 138.407 182.808 135.195 184.472C131.983 186.137 128.768 187.76 125.384 189.114C128.985 188.448 132.495 187.366 135.845 185.888C139.228 184.503 142.507 182.91 145.731 181.22C148.956 179.531 152.115 177.715 155.214 175.815C158.312 173.915 161.316 171.835 164.205 169.605Z" fill="#263238"/>
<path d="M177.452 177.924C175.483 179.814 173.577 181.734 171.687 183.639C169.796 185.543 167.897 187.451 165.968 189.306C164.039 191.16 162.12 193.011 160.104 194.769C158.089 196.526 156.016 198.24 153.883 199.932C156.432 198.921 158.845 197.597 161.068 195.99C163.286 194.383 165.388 192.621 167.358 190.718C169.301 188.808 171.13 186.785 172.834 184.659C174.563 182.549 176.108 180.296 177.452 177.924Z" fill="#263238"/>
<path d="M187.914 185.229C186.492 186.958 185.164 188.761 183.934 190.631C182.689 192.471 181.535 194.364 180.391 196.253C179.247 198.142 178.173 200.081 177.109 202.048C176.045 204.016 175.059 205.935 174.018 207.968C175.67 206.44 177.147 204.735 178.425 202.883C179.744 201.071 180.932 199.188 182.083 197.286C183.233 195.384 184.278 193.423 185.253 191.412C186.276 189.412 187.165 187.347 187.914 185.229Z" fill="#263238"/>
<path d="M198.541 193.715C197.684 195.384 196.922 197.101 196.26 198.857C195.592 200.591 194.958 202.335 194.382 204.091C193.805 205.847 193.277 207.65 192.735 209.383L191.129 214.703C192.373 213.262 193.4 211.647 194.177 209.909C194.986 208.215 195.686 206.47 196.271 204.685C196.856 202.906 197.345 201.097 197.736 199.266C198.159 197.441 198.429 195.585 198.541 193.715Z" fill="#263238"/>
<path d="M160.603 178.507C158.763 175.611 167.137 171.711 167.137 171.711C164.393 172.115 161.629 172.367 158.857 172.466C154.662 172.577 145.725 172.596 145.02 167.94C144.316 163.284 162.742 161.053 162.742 161.053C162.742 161.053 155.6 160.45 147.608 159.104C121.027 154.638 157.096 147.642 157.096 147.642C157.096 147.642 142.889 144.981 137.113 143.248C118.878 137.792 156.008 134.863 156.008 134.863C156.008 134.863 138.121 130.134 139.72 127.97C141.319 125.807 148.923 125.392 148.923 125.392C148.923 125.392 123.612 117.109 121.759 114.513L123.52 114.738C141.09 116.995 159.225 119.448 174.367 128.623C187.123 136.349 196.717 148.232 206.035 159.871C204.342 166.036 204.522 172.536 204.884 178.92C204.917 179.628 204.983 180.336 205.029 181.05L199.916 182.94C199.916 182.94 194.2 191.453 190.21 190.995C186.22 190.537 188.756 179.539 188.756 179.539C188.756 179.539 180.297 192.168 176.881 190.008C173.464 187.849 180.497 176.783 180.497 176.783C177.594 178.178 174.585 179.338 171.497 180.254C167.211 181.476 162.441 181.395 160.603 178.507Z" fill="white" stroke="#263238" stroke-miterlimit="10"/>
<path d="M169.786 136.044C169.786 136.044 163.887 139.148 164.75 140.966C165.614 142.783 174.332 142.5 174.332 142.5C174.332 142.5 165.421 148.026 167.531 151.485C169.641 154.945 179.32 151.905 179.32 151.905C179.32 151.905 176.323 158.523 178.891 160.924C181.46 163.325 186.706 160.14 186.706 160.14C186.706 160.14 185.783 167.244 188.586 168.612C191.388 169.979 196.053 165.302 196.053 165.302" fill="white"/>
<path d="M169.786 136.044C169.786 136.044 163.887 139.148 164.75 140.966C165.614 142.783 174.332 142.5 174.332 142.5C174.332 142.5 165.421 148.026 167.531 151.485C169.641 154.945 179.32 151.905 179.32 151.905C179.32 151.905 176.323 158.523 178.891 160.924C181.46 163.325 186.706 160.14 186.706 160.14C186.706 160.14 185.783 167.244 188.586 168.612C191.388 169.979 196.053 165.302 196.053 165.302" stroke="#263238" stroke-miterlimit="10"/>
<path d="M273.224 253.589L270.254 282.011C270.225 282.292 270.268 282.575 270.377 282.836C270.487 283.096 270.66 283.324 270.881 283.499C271.103 283.675 271.364 283.792 271.643 283.839C271.921 283.887 272.206 283.863 272.473 283.771C272.721 283.683 272.945 283.538 273.128 283.348C273.31 283.158 273.445 282.928 273.523 282.677L281.555 256.245L273.224 253.589Z" fill="#106DA3" stroke="#263238" stroke-miterlimit="10"/>
<path d="M352.256 226.178L372.206 246.651C372.405 246.852 372.549 247.1 372.626 247.371C372.702 247.643 372.709 247.93 372.644 248.205C372.58 248.48 372.447 248.734 372.258 248.944C372.069 249.153 371.83 249.312 371.563 249.404C371.312 249.489 371.045 249.515 370.783 249.479C370.52 249.444 370.27 249.347 370.052 249.197L347.388 233.412L352.256 226.178Z" fill="#106DA3" stroke="#263238" stroke-miterlimit="10"/>
<path d="M207.664 83.7003L204.948 86.4155L228.883 110.352L231.599 107.637L207.664 83.7003Z" fill="#263238" stroke="#263238" stroke-miterlimit="10"/>
<path d="M248.593 82.2288L203.725 127.12L194.157 117.843C192.408 116.087 191.428 113.709 191.432 111.23C191.436 108.752 192.423 106.377 194.178 104.626L225.856 72.9468C227.611 71.1936 229.991 70.2092 232.473 70.21C234.954 70.2109 237.333 71.1968 239.088 72.9512L248.593 82.2288Z" fill="#106DA3" stroke="#263238" stroke-miterlimit="10"/>
<path d="M293.479 86.1701L297.292 86.6209L301.266 53.005L297.453 52.5542L293.479 86.1701Z" fill="#263238" stroke="#263238" stroke-miterlimit="10"/>
<path d="M265.021 75.8852L328.092 83.3287L329.177 71.0134C329.461 68.5532 328.759 66.0806 327.224 64.1372C325.689 62.1937 323.446 60.9378 320.987 60.6446L276.49 55.3641C274.027 55.0744 271.55 55.7748 269.604 57.3113C267.657 58.8478 266.401 61.0945 266.111 63.5572L265.021 75.8852Z" fill="#106DA3" stroke="#263238" stroke-miterlimit="10"/>
<path d="M256.547 75.4691L255.205 75.9344L260.936 92.4588L262.278 91.9935L256.547 75.4691Z" fill="#263238" stroke="#263238" stroke-miterlimit="10"/>
<path d="M257.696 70.8475L251.158 73.115C250.161 73.4607 249.633 74.5488 249.979 75.5454L250.336 76.5753C250.682 77.5719 251.77 78.0996 252.767 77.7539L259.305 75.4864C260.301 75.1407 260.829 74.0526 260.483 73.0559L260.126 72.0261C259.78 71.0295 258.692 70.5018 257.696 70.8475Z" fill="#263238" stroke="#263238" stroke-miterlimit="10"/>
<path d="M317.64 254.24C363.083 238.479 387.145 188.863 371.384 143.421C355.623 97.9778 306.007 73.916 260.564 89.6771C215.121 105.438 191.06 155.054 206.821 200.497C222.582 245.939 272.197 270.001 317.64 254.24Z" fill="#263238" stroke="#263238" stroke-miterlimit="10"/>
<path d="M363.468 157.758C356.175 116.933 317.168 89.75 276.343 97.0428C235.518 104.336 208.335 143.343 215.628 184.167C222.921 224.992 261.928 252.175 302.753 244.882C343.577 237.59 370.76 198.583 363.468 157.758Z" fill="white" stroke="#263238" stroke-miterlimit="10"/>
<path d="M362.954 163.834C358.472 123.034 321.764 93.5916 280.963 98.0731C240.163 102.555 210.721 139.263 215.202 180.063C219.684 220.864 256.392 250.306 297.192 245.824C337.993 241.343 367.435 204.635 362.954 163.834Z" fill="white" stroke="#263238" stroke-miterlimit="10"/>
<path d="M286.911 169.945L275.654 135.534L289.074 168.857L286.911 169.945Z" fill="#106DA3" stroke="#263238" stroke-miterlimit="10"/>
<path d="M288.106 174.305L247.635 218.412L287.117 170.752L288.106 174.305Z" fill="#106DA3" stroke="#263238" stroke-miterlimit="10"/>
<path d="M292.144 170.904C292.356 171.507 292.383 172.16 292.223 172.779C292.063 173.399 291.723 173.957 291.245 174.382C290.768 174.808 290.175 175.082 289.541 175.171C288.908 175.259 288.262 175.157 287.687 174.878C287.111 174.598 286.631 174.155 286.308 173.603C285.985 173.051 285.833 172.415 285.872 171.776C285.911 171.138 286.138 170.525 286.525 170.016C286.912 169.507 287.442 169.124 288.047 168.916C288.854 168.639 289.738 168.693 290.505 169.065C291.273 169.437 291.862 170.098 292.144 170.904Z" fill="#263238" stroke="#263238" stroke-miterlimit="10"/>
<path d="M357.76 148.146L353.697 149.555" stroke="#263238" stroke-miterlimit="10"/>
<path d="M224.507 194.362L220.445 195.771" stroke="#263238" stroke-miterlimit="10"/>
<path d="M327.768 181.026L324.766 184.121" stroke="#263238" stroke-miterlimit="10"/>
<path d="M241.461 220.997L238.459 224.092" stroke="#263238" stroke-miterlimit="10"/>
<path d="M303.252 100.666L302.411 104.895" stroke="#263238" stroke-miterlimit="10"/>
<path d="M275.78 239.016L274.94 243.245" stroke="#263238" stroke-miterlimit="10"/>
<path d="M221.325 162.94L217.052 162.369" stroke="#263238" stroke-miterlimit="10"/>
<path d="M361.149 181.539L356.876 180.968" stroke="#263238" stroke-miterlimit="10"/>
<path d="M237.117 127.541L233.838 124.741" stroke="#263238" stroke-miterlimit="10"/>
<path d="M344.353 219.17L341.075 216.37" stroke="#263238" stroke-miterlimit="10"/>
<path d="M266.695 107.354L265.289 103.301" stroke="#263238" stroke-miterlimit="10"/>
<path d="M312.915 240.616L311.506 236.554" stroke="#263238" stroke-miterlimit="10"/>
<path d="M266.623 123.351L263.415 114.101L263.118 114.405L262.755 114.732L262.383 115.063L262.064 115.364L261.448 113.588C261.529 113.485 261.654 113.357 261.81 113.197L262.306 112.644C262.49 112.443 262.643 112.242 262.799 112.05C262.914 111.896 263.017 111.733 263.106 111.563L264.996 110.907L269.023 122.519L266.623 123.351Z" fill="#263238"/>
<path d="M270.875 121.876L270.288 120.185L271.594 114.948L271.862 113.797C271.946 113.436 271.988 113.066 271.987 112.695C272.003 112.353 271.953 112.011 271.839 111.688C271.769 111.416 271.608 111.177 271.382 111.01C271.289 110.95 271.183 110.914 271.072 110.904C270.962 110.894 270.851 110.912 270.749 110.955C270.637 110.985 270.533 111.038 270.444 111.111C270.354 111.184 270.281 111.275 270.229 111.378C270.131 111.586 270.097 111.819 270.133 112.047C270.165 112.331 270.23 112.61 270.326 112.879L270.526 113.456L268.174 114.272L267.961 113.657C267.721 113.017 267.611 112.336 267.636 111.653C267.664 111.057 267.876 110.485 268.242 110.014C268.695 109.478 269.295 109.086 269.968 108.886C270.386 108.708 270.835 108.615 271.289 108.614C271.743 108.613 272.193 108.703 272.612 108.88C272.993 109.089 273.329 109.372 273.6 109.712C273.871 110.053 274.071 110.444 274.189 110.862C274.348 111.306 274.424 111.774 274.414 112.245C274.41 112.709 274.35 113.17 274.235 113.619C274.12 114.083 274.002 114.568 273.86 115.072L272.845 118.981L276.236 117.805L276.892 119.694L270.875 121.876Z" fill="#263238"/>
<path d="M302.958 119.534L299.75 110.284L299.45 110.579L299.088 110.906L298.725 111.233L298.406 111.534L297.79 109.758C297.874 109.665 297.986 109.531 298.152 109.367L298.648 108.814C298.823 108.616 298.988 108.421 299.131 108.223C299.249 108.068 299.355 107.904 299.448 107.733L301.337 107.077L305.368 118.698L302.958 119.534Z" fill="#263238"/>
<path d="M330.208 134.289L329.621 132.598L330.927 127.361L331.195 126.21C331.268 125.846 331.31 125.478 331.321 125.107C331.336 124.765 331.286 124.424 331.173 124.1C331.103 123.829 330.941 123.589 330.715 123.423C330.622 123.364 330.516 123.328 330.406 123.318C330.295 123.308 330.184 123.325 330.082 123.367C329.969 123.398 329.864 123.452 329.773 123.526C329.682 123.599 329.607 123.691 329.553 123.794C329.459 124.004 329.426 124.235 329.457 124.463C329.498 124.745 329.566 125.023 329.66 125.292L329.859 125.868L327.516 126.681L327.303 126.067C327.076 125.44 326.971 124.776 326.995 124.11C327.016 123.513 327.229 122.938 327.601 122.471C328.054 121.934 328.654 121.542 329.327 121.343C329.755 121.161 330.217 121.07 330.682 121.076C331.147 121.082 331.606 121.186 332.028 121.38C332.411 121.587 332.749 121.87 333.021 122.209C333.294 122.549 333.495 122.94 333.615 123.359C333.774 123.802 333.85 124.271 333.84 124.742C333.832 125.201 333.774 125.658 333.667 126.104L333.292 127.557L332.267 131.468L335.669 130.289L336.324 132.178L330.208 134.289Z" fill="#263238"/>
<path d="M349.721 156.523C349.072 156.782 348.362 156.852 347.674 156.724C347.105 156.576 346.6 156.245 346.236 155.784C345.824 155.244 345.503 154.64 345.288 153.996L345.144 153.58L347.544 152.748L347.688 153.163C347.791 153.482 347.922 153.791 348.082 154.085C348.177 154.274 348.334 154.425 348.527 154.513C348.71 154.581 348.913 154.575 349.092 154.497C349.184 154.473 349.27 154.431 349.345 154.372C349.419 154.313 349.48 154.24 349.525 154.156C349.6 153.969 349.618 153.764 349.575 153.567C349.516 153.265 349.434 152.968 349.33 152.679C349.2 152.223 348.964 151.804 348.641 151.457C348.487 151.335 348.302 151.257 348.107 151.231C347.912 151.206 347.713 151.234 347.533 151.312L347.089 151.466L346.519 149.822L346.906 149.688C347.106 149.646 347.292 149.554 347.446 149.419C347.599 149.284 347.715 149.111 347.782 148.918C347.839 148.448 347.773 147.971 347.588 147.535C347.485 147.176 347.302 146.845 347.052 146.568C346.949 146.47 346.819 146.405 346.679 146.382C346.538 146.359 346.395 146.379 346.266 146.438C346.127 146.472 346.003 146.551 345.914 146.662C345.824 146.774 345.774 146.911 345.77 147.054C345.783 147.427 345.857 147.794 345.989 148.143L346.195 148.738L343.796 149.57L343.553 148.871C343.325 148.266 343.245 147.616 343.318 146.973C343.397 146.417 343.646 145.898 344.031 145.488C344.47 145.046 345.01 144.717 345.604 144.53C346.192 144.311 346.823 144.229 347.448 144.292C347.994 144.36 348.506 144.592 348.917 144.957C349.374 145.398 349.713 145.947 349.904 146.552C350.132 147.144 350.19 147.787 350.072 148.41C350.004 148.887 349.75 149.317 349.365 149.607C349.671 149.608 349.974 149.677 350.25 149.808C350.569 149.965 350.845 150.196 351.055 150.482C351.345 150.878 351.569 151.319 351.719 151.786C351.956 152.425 352.072 153.103 352.063 153.784C352.057 154.376 351.858 154.95 351.498 155.419C351.031 155.959 350.412 156.344 349.721 156.523Z" fill="#263238"/>
<path d="M351.52 183.164L350.616 180.556L347.045 181.795L346.435 180.038L346.945 171.743L349.779 170.759L352.286 177.987L353.363 177.614L353.979 179.39L352.902 179.763L353.81 182.38L351.52 183.164ZM348.249 179.377L349.997 178.771L348.322 173.943L348.249 179.377Z" fill="#263238"/>
<path d="M336.419 213.963C335.771 214.23 335.059 214.3 334.372 214.165C333.832 214.012 333.365 213.671 333.054 213.203C332.681 212.642 332.384 212.033 332.172 211.393L334.402 210.619C334.522 210.981 334.672 211.333 334.851 211.67C334.949 211.884 335.115 212.061 335.322 212.174C335.419 212.213 335.523 212.231 335.628 212.228C335.732 212.224 335.835 212.199 335.929 212.154C336.038 212.12 336.136 212.057 336.211 211.971C336.285 211.885 336.335 211.78 336.353 211.668C336.383 211.365 336.352 211.059 336.263 210.767C336.139 210.408 335.991 209.983 335.814 209.473C335.695 209.132 335.555 208.799 335.394 208.476C335.275 208.233 335.1 208.021 334.884 207.859C334.787 207.792 334.675 207.751 334.558 207.74C334.441 207.729 334.324 207.747 334.216 207.794C334.105 207.83 334.002 207.889 333.916 207.968C333.831 208.047 333.763 208.144 333.719 208.252C333.623 208.549 333.605 208.865 333.666 209.17L331.597 209.888L329.495 203.123L334.918 201.242L335.612 203.245L332.107 204.461L332.817 206.903C332.899 206.682 333.047 206.49 333.24 206.354C333.483 206.159 333.75 205.995 334.034 205.867C334.526 205.604 335.098 205.534 335.639 205.671C336.192 205.834 336.679 206.169 337.029 206.628C337.489 207.23 337.841 207.906 338.072 208.627C338.273 209.198 338.434 209.782 338.551 210.376C338.655 210.872 338.663 211.382 338.576 211.881C338.486 212.338 338.263 212.757 337.936 213.088C337.505 213.493 336.986 213.793 336.419 213.963Z" fill="#263238"/>
<path d="M311.368 232.707C310.714 232.976 309.991 233.03 309.304 232.861C308.71 232.697 308.183 232.351 307.797 231.871C307.346 231.323 307.002 230.695 306.784 230.02L305.326 225.816C305.078 225.137 304.931 224.424 304.889 223.702C304.845 223.092 305.007 222.484 305.349 221.976C305.805 221.396 306.435 220.977 307.147 220.781C307.746 220.545 308.394 220.454 309.035 220.518C309.533 220.58 309.991 220.82 310.327 221.192C310.704 221.646 310.989 222.169 311.168 222.731C311.176 222.771 311.19 222.809 311.207 222.845L311.237 222.93L308.988 223.71C308.878 223.356 308.722 223.019 308.524 222.706C308.373 222.515 308.135 222.471 307.814 222.582C307.718 222.607 307.63 222.654 307.555 222.718C307.48 222.783 307.421 222.864 307.382 222.954C307.324 223.21 307.332 223.477 307.407 223.729C307.526 224.212 307.67 224.688 307.839 225.156L308.196 226.186C308.254 225.93 308.393 225.7 308.593 225.53C308.831 225.316 309.108 225.152 309.409 225.045C309.917 224.823 310.488 224.79 311.018 224.953C311.506 225.137 311.928 225.462 312.231 225.887C312.597 226.384 312.881 226.936 313.073 227.522C313.336 228.243 313.491 228.998 313.533 229.765C313.57 230.385 313.414 231.001 313.087 231.528C312.657 232.098 312.054 232.511 311.368 232.707ZM310.755 230.94C310.849 230.914 310.936 230.866 311.007 230.799C311.078 230.732 311.131 230.648 311.161 230.555C311.202 230.313 311.192 230.064 311.13 229.825C311.029 229.532 310.904 229.173 310.754 228.739C310.603 228.304 310.508 228.03 310.426 227.794C310.339 227.563 310.195 227.358 310.008 227.198C309.918 227.139 309.816 227.103 309.709 227.094C309.602 227.085 309.495 227.102 309.397 227.146C309.282 227.186 309.178 227.251 309.092 227.336C309.006 227.414 308.934 227.507 308.88 227.61C308.836 227.695 308.803 227.784 308.782 227.877L309.438 229.767C309.521 230.015 309.629 230.254 309.76 230.481C309.859 230.671 310.006 230.831 310.186 230.947C310.275 230.989 310.373 231.01 310.471 231.009C310.57 231.008 310.667 230.984 310.755 230.94Z" fill="#263238"/>
<path d="M276.837 238.216L275.964 227.553L272.79 228.654L272.154 226.821L277.662 224.911L278.232 226.555L279.132 237.42L276.837 238.216Z" fill="#263238"/>
<path d="M248.114 220.892C247.463 221.156 246.748 221.219 246.06 221.075C245.487 220.931 244.978 220.602 244.613 220.137C244.189 219.605 243.864 219 243.655 218.352C243.565 218.067 243.499 217.775 243.458 217.479C243.415 217.202 243.406 216.92 243.432 216.641C243.461 216.379 243.529 216.124 243.635 215.883C243.743 215.642 243.892 215.422 244.076 215.232C243.662 215.09 243.283 214.861 242.964 214.559C242.547 214.156 242.23 213.661 242.039 213.113C241.816 212.542 241.73 211.927 241.787 211.316C241.835 210.783 242.059 210.281 242.424 209.889C242.848 209.449 243.376 209.124 243.959 208.943C244.533 208.721 245.154 208.652 245.762 208.741C246.283 208.836 246.761 209.093 247.128 209.474C247.541 209.92 247.843 210.457 248.01 211.042C248.215 211.59 248.286 212.179 248.215 212.76C248.165 213.197 248.008 213.615 247.758 213.976C248.02 214.011 248.273 214.092 248.507 214.214C248.742 214.334 248.955 214.493 249.136 214.684C249.332 214.886 249.503 215.111 249.644 215.355C249.804 215.608 249.933 215.879 250.03 216.163C250.282 216.795 250.408 217.47 250.402 218.151C250.396 218.743 250.197 219.317 249.837 219.786C249.383 220.315 248.784 220.699 248.114 220.892ZM247.501 219.125C247.614 219.095 247.716 219.034 247.797 218.95C247.878 218.866 247.934 218.762 247.96 218.648C248.006 218.394 247.999 218.134 247.938 217.883C247.868 217.639 247.785 217.4 247.689 217.165C247.614 216.871 247.514 216.583 247.391 216.305C247.291 216.07 247.136 215.862 246.938 215.7C246.846 215.631 246.737 215.588 246.623 215.576C246.509 215.563 246.393 215.582 246.289 215.629C246.179 215.657 246.078 215.714 245.998 215.794C245.918 215.874 245.86 215.974 245.832 216.084C245.778 216.331 245.78 216.587 245.838 216.833C245.923 217.128 246.024 217.418 246.14 217.702C246.211 217.949 246.295 218.192 246.392 218.43C246.494 218.664 246.649 218.871 246.845 219.035C246.936 219.107 247.045 219.154 247.161 219.17C247.276 219.185 247.394 219.17 247.501 219.125ZM245.63 213.73C245.706 213.704 245.776 213.662 245.833 213.605C245.891 213.549 245.934 213.48 245.961 213.404C246.027 213.187 246.038 212.958 245.994 212.736C245.948 212.403 245.866 212.077 245.752 211.762C245.653 211.432 245.479 211.13 245.244 210.879C245.161 210.792 245.055 210.73 244.938 210.701C244.821 210.672 244.699 210.678 244.585 210.716C244.468 210.756 244.365 210.828 244.288 210.924C244.21 211.021 244.162 211.137 244.148 211.259C244.109 211.602 244.157 211.95 244.287 212.27C244.39 212.589 244.525 212.896 244.69 213.188C244.797 213.395 244.956 213.569 245.152 213.695C245.224 213.735 245.304 213.759 245.387 213.765C245.47 213.771 245.552 213.759 245.63 213.73Z" fill="#263238"/>
<path d="M231.15 197.647C230.556 197.886 229.913 197.978 229.275 197.916C228.774 197.855 228.313 197.612 227.979 197.233C227.598 196.778 227.311 196.252 227.135 195.684L227.07 195.495L229.299 194.722C229.409 195.077 229.572 195.413 229.783 195.719C229.874 195.817 229.995 195.883 230.127 195.906C230.26 195.929 230.396 195.908 230.515 195.846C230.609 195.82 230.695 195.774 230.769 195.71C230.842 195.646 230.9 195.566 230.937 195.477C230.988 195.214 230.974 194.943 230.896 194.687C230.781 194.356 230.618 193.884 230.411 193.288L230.054 192.259C229.993 192.517 229.851 192.748 229.648 192.918C229.413 193.118 229.146 193.279 228.86 193.393C228.338 193.612 227.755 193.634 227.219 193.454C226.716 193.249 226.283 192.903 225.974 192.457C225.611 191.947 225.324 191.387 225.122 190.794C224.858 190.085 224.717 189.336 224.703 188.579C224.693 187.963 224.88 187.36 225.239 186.858C225.682 186.311 226.284 185.914 226.961 185.721C227.608 185.453 228.321 185.383 229.008 185.519C229.585 185.666 230.101 185.99 230.483 186.447C230.923 186.994 231.261 187.615 231.48 188.282L232.98 192.609C233.228 193.288 233.376 194.001 233.417 194.723C233.456 195.333 233.295 195.939 232.957 196.449C232.497 197.029 231.864 197.449 231.15 197.647ZM228.951 191.307C229.038 191.285 229.118 191.244 229.188 191.189C229.258 191.134 229.316 191.065 229.359 190.986C229.43 190.863 229.487 190.733 229.531 190.598L228.876 188.709C228.791 188.461 228.687 188.222 228.563 187.991C228.467 187.804 228.327 187.642 228.156 187.519C228.072 187.468 227.977 187.439 227.879 187.432C227.781 187.426 227.683 187.443 227.593 187.481C227.499 187.508 227.414 187.557 227.345 187.626C227.276 187.694 227.226 187.779 227.199 187.872C227.149 188.115 227.157 188.366 227.22 188.605C227.322 188.898 227.447 189.257 227.594 189.682C227.741 190.108 227.836 190.382 227.922 190.627C228.008 190.858 228.152 191.063 228.34 191.223C228.432 191.284 228.538 191.32 228.648 191.327C228.758 191.333 228.868 191.31 228.967 191.26L228.951 191.307Z" fill="#263238"/>
<path d="M228.127 169.705L224.919 160.455C224.825 160.56 224.725 160.658 224.619 160.75L224.266 161.074L223.893 161.404C223.771 161.51 223.671 161.618 223.578 161.714L222.958 159.929L223.32 159.539L223.82 158.995C223.994 158.797 224.156 158.592 224.3 158.395C224.424 158.247 224.531 158.085 224.619 157.913L226.509 157.258L230.536 168.869L228.127 169.705Z" fill="#263238"/>
<path d="M235.827 167.278C235.224 167.511 234.568 167.574 233.932 167.459C233.377 167.343 232.869 167.066 232.47 166.664C232.034 166.204 231.705 165.653 231.508 165.05L229.683 159.787C229.458 159.179 229.363 158.531 229.404 157.884C229.438 157.31 229.657 156.763 230.027 156.323C230.484 155.852 231.045 155.494 231.665 155.278C232.286 155.063 232.948 154.997 233.598 155.085C234.159 155.208 234.667 155.501 235.054 155.924C235.48 156.411 235.803 156.98 236.004 157.595L237.829 162.858C238.051 163.449 238.133 164.083 238.07 164.711C238.01 165.277 237.783 165.813 237.418 166.25C236.992 166.732 236.441 167.087 235.827 167.278ZM235.086 165.142C235.185 165.118 235.276 165.068 235.35 164.998C235.424 164.928 235.479 164.84 235.508 164.742C235.555 164.554 235.556 164.358 235.511 164.17C235.464 163.996 235.405 163.825 235.334 163.659L233.548 158.51C233.492 158.35 233.427 158.161 233.355 157.953C233.275 157.766 233.149 157.602 232.989 157.477C232.905 157.413 232.805 157.374 232.701 157.364C232.596 157.353 232.491 157.372 232.396 157.417C232.295 157.442 232.202 157.493 232.126 157.566C232.051 157.639 231.997 157.73 231.968 157.831C231.925 158.029 231.927 158.234 231.975 158.431C232.048 158.639 232.113 158.828 232.169 158.989L233.955 164.138C234.018 164.307 234.093 164.472 234.179 164.632C234.267 164.804 234.392 164.956 234.545 165.076C234.623 165.131 234.713 165.165 234.807 165.177C234.902 165.189 234.998 165.177 235.086 165.142Z" fill="#263238"/>
<path d="M243.974 140.415L240.766 131.165L240.466 131.46L240.103 131.787L239.74 132.114L239.421 132.415L238.805 130.639C238.89 130.546 239.002 130.412 239.168 130.249L239.664 129.695C239.838 129.497 240 129.293 240.147 129.105C240.265 128.949 240.371 128.785 240.463 128.614L242.353 127.958L246.383 139.579L243.974 140.415Z" fill="#263238"/>
<path d="M249.548 138.481L246.34 129.232L246.05 129.523L245.687 129.85L245.315 130.18L244.996 130.482L244.38 128.705L244.742 128.315L245.238 127.762C245.422 127.561 245.575 127.36 245.721 127.171C245.842 127.018 245.948 126.854 246.038 126.68L247.927 126.025L251.958 137.646L249.548 138.481Z" fill="#263238"/>
<path d="M303.006 56.0109C303.006 56.0109 286.972 53.4536 283.648 52.3837C280.324 51.3139 277.889 41.0874 274.737 36.2742C271.586 31.4611 268.647 29.5169 256.642 31.098C253.478 31.5273 250.338 32.1216 247.236 32.8784L236.077 36.6535C232.832 38.0804 229.676 39.7016 226.626 41.5085C216.221 47.7001 215.116 51.0468 215.669 56.761C216.222 62.4753 220.582 71.9923 218.647 74.9284C216.712 77.8645 205.693 89.7624 205.693 89.7624" stroke="#263238" stroke-width="2" stroke-linecap="round" stroke-linejoin="round"/>
<path d="M199.989 324.732C208.379 330.882 216.939 337.212 222.699 345.862C229.549 356.142 231.799 368.712 233.889 380.862L237.409 401.362C238.028 404.321 238.324 407.339 238.289 410.362C238.325 410.776 238.261 411.193 238.102 411.577C237.944 411.962 237.696 412.303 237.379 412.572C236.891 412.817 236.331 412.881 235.799 412.752C234.568 412.473 233.409 411.938 232.397 411.182C231.386 410.425 230.545 409.465 229.929 408.362C228.72 406.165 227.824 403.808 227.269 401.362L219.919 374.362C219.919 380.362 219.953 386.395 220.019 392.462C220.019 395.802 220.819 399.172 220.959 402.522C221.019 404.082 221.369 406.662 220.489 408.052C217.849 412.202 212.419 402.202 211.619 400.372C210.116 396.853 209.067 393.156 208.499 389.372C207.379 382.372 207.579 375.222 207.779 368.122C206.233 376.789 204.679 385.425 203.119 394.032C202.834 396.088 202.304 398.102 201.539 400.032C201.009 401.202 199.979 402.462 198.709 402.222C198.206 402.1 197.748 401.836 197.389 401.462C195.389 399.572 194.529 396.742 194.029 394.022C192.449 385.402 193.379 376.532 194.319 367.822C191.273 374.267 187.823 380.512 183.989 386.522C181.539 390.312 179.769 386.822 179.469 383.992C178.982 379.445 179.487 374.845 180.949 370.512C182.309 366.512 184.459 360.902 187.359 357.752C183.656 361.78 179.72 365.587 175.569 369.152C174.209 370.322 172.309 371.522 170.769 370.592C169.549 369.862 169.339 368.192 169.379 366.772C169.562 360.351 171.977 354.195 176.209 349.362C173.479 351.422 170.489 353.572 167.069 353.622C163.649 353.672 160.069 350.452 161.069 347.192C161.619 345.492 163.179 344.362 164.649 343.352L174.789 336.352C170.121 338.126 165.31 339.501 160.409 340.462C159.359 340.672 158.049 340.752 157.409 339.862C157.134 339.358 157.059 338.769 157.199 338.212C157.909 334.212 162.309 332.212 166.119 330.942C164.379 330.402 162.499 330.772 160.699 330.532C158.899 330.292 156.929 328.982 157.109 327.172C157.221 326.573 157.505 326.02 157.926 325.58C158.347 325.139 158.886 324.831 159.479 324.692C160.671 324.442 161.9 324.422 163.099 324.632C170.939 325.505 178.803 325.995 186.689 326.102C191.209 326.172 195.749 326.092 199.989 324.732Z" fill="#106DA3" stroke="#263238" stroke-miterlimit="10"/>
<path d="M212.129 361.362C212.339 364.812 212.599 368.242 212.889 371.662C213.179 375.082 213.509 378.502 213.889 381.912C214.269 385.322 214.739 388.722 215.249 392.112C215.759 395.502 216.349 398.892 216.869 402.312C215.774 399.035 214.875 395.696 214.179 392.312C213.789 390.632 213.529 388.922 213.179 387.222C212.829 385.522 212.669 383.802 212.469 382.082C212.069 378.642 211.809 375.192 211.729 371.732C211.632 368.27 211.766 364.806 212.129 361.362Z" fill="#263238"/>
<path d="M221.769 364.572C222.849 367.842 223.769 371.142 224.769 374.452C225.769 377.762 226.569 381.072 227.439 384.392C228.309 387.712 229.129 391.042 229.949 394.392C230.769 397.742 231.549 401.052 232.539 404.342C231.088 401.217 229.871 397.988 228.899 394.682C227.899 391.402 226.969 388.082 226.089 384.762C225.209 381.442 224.439 378.092 223.719 374.762C222.999 371.432 222.289 367.982 221.769 364.572Z" fill="#263238"/>
<path d="M201.409 360.232C200.839 366.142 200.029 371.992 199.409 377.852C199.059 380.782 198.739 383.702 198.479 386.642C198.219 389.582 198.019 392.512 198.009 395.482C197.502 392.544 197.297 389.562 197.399 386.582C197.399 385.092 197.519 383.582 197.599 382.122C197.679 380.662 197.849 379.122 198.019 377.692C198.379 374.742 198.819 371.802 199.389 368.892C199.959 365.982 200.589 363.082 201.409 360.232Z" fill="#263238"/>
<path d="M194.409 354.162C193.409 356.512 192.409 358.822 191.339 361.112L188.129 367.972C187.029 370.242 185.979 372.532 184.919 374.812C183.859 377.092 182.829 379.392 181.969 381.812C182.334 379.286 182.984 376.81 183.909 374.432C184.779 372.032 185.789 369.702 186.909 367.432C188.029 365.162 189.159 362.882 190.419 360.682C191.639 358.443 192.97 356.267 194.409 354.162Z" fill="#263238"/>
<path d="M188.239 345.172C186.979 346.612 185.699 347.992 184.429 349.372C183.159 350.752 181.889 352.122 180.649 353.522C179.409 354.922 178.199 356.332 177.009 357.762C175.819 359.192 174.709 360.702 173.599 362.252C174.227 360.444 175.077 358.721 176.129 357.122C177.181 355.532 178.344 354.018 179.609 352.592C180.882 351.179 182.238 349.844 183.669 348.592C185.094 347.326 186.623 346.182 188.239 345.172Z" fill="#263238"/>
<path d="M182.829 338.112C181.669 339.152 180.454 340.131 179.189 341.042C177.949 341.962 176.669 342.822 175.379 343.672C174.089 344.522 172.779 345.332 171.449 346.122C170.119 346.912 168.769 347.652 167.449 348.442C168.461 347.243 169.605 346.163 170.859 345.222C172.079 344.222 173.359 343.372 174.649 342.512C175.939 341.652 177.279 340.862 178.649 340.122C180 339.367 181.396 338.696 182.829 338.112Z" fill="#263238"/>
<path d="M176.609 330.952C175.471 331.6 174.295 332.181 173.089 332.692C171.899 333.212 170.709 333.692 169.499 334.162C168.289 334.632 167.079 335.052 165.869 335.472L162.179 336.732C163.148 335.826 164.243 335.064 165.429 334.472C166.584 333.852 167.78 333.314 169.009 332.862C170.229 332.395 171.475 331.998 172.739 331.672C174.007 331.325 175.302 331.084 176.609 330.952Z" fill="#263238"/>
<path d="M188.339 356.932C190.409 358.122 192.869 352.172 192.869 352.172C192.684 354.1 192.6 356.036 192.619 357.972C192.679 360.892 192.919 367.132 196.179 367.482C199.439 367.832 200.459 354.932 200.459 354.932C200.459 354.932 201.089 359.932 202.269 365.412C206.169 383.802 209.969 358.472 209.969 358.472C209.969 358.472 212.249 368.292 213.629 372.262C217.969 384.802 218.909 358.842 218.909 358.842C218.909 358.842 222.729 371.162 224.189 369.992C225.649 368.822 225.719 363.492 225.719 363.492C225.719 363.492 232.239 380.882 234.109 382.102L233.889 380.872C231.799 368.712 229.549 356.142 222.699 345.872C216.939 337.222 208.379 330.872 199.989 324.742C195.749 326.102 191.209 326.182 186.759 326.112C186.259 326.112 185.759 326.112 185.269 326.112L184.109 329.732C184.109 329.732 178.339 333.972 178.779 336.732C179.219 339.492 186.779 337.392 186.779 337.392C186.779 337.392 178.229 343.672 179.779 345.972C181.329 348.272 188.889 343.062 188.889 343.062C188.004 345.125 187.285 347.255 186.739 349.432C186.069 352.422 186.269 355.742 188.339 356.932Z" fill="white" stroke="#263238" stroke-miterlimit="10"/>
<path d="M217.649 349.272C217.649 349.272 215.649 353.472 214.359 352.922C213.069 352.372 212.999 346.292 212.999 346.292C212.999 346.292 209.419 352.672 206.939 351.292C204.459 349.912 206.299 343.082 206.299 343.082C206.299 343.082 201.779 345.352 200.029 343.652C198.279 341.952 200.339 338.162 200.339 338.162C200.339 338.162 195.419 339.022 194.339 337.112C193.259 335.202 196.419 331.812 196.419 331.812" fill="white"/>
<path d="M217.649 349.272C217.649 349.272 215.649 353.472 214.359 352.922C213.069 352.372 212.999 346.292 212.999 346.292C212.999 346.292 209.419 352.672 206.939 351.292C204.459 349.912 206.299 343.082 206.299 343.082C206.299 343.082 201.779 345.352 200.029 343.652C198.279 341.952 200.339 338.162 200.339 338.162C200.339 338.162 195.419 339.022 194.339 337.112C193.259 335.202 196.419 331.812 196.419 331.812" stroke="#263238" stroke-miterlimit="10"/>
<path d="M83.9694 289.172C73.6394 288.032 63.0494 286.912 52.9694 289.402C40.9694 292.352 30.8294 300.092 21.0594 307.642L4.59938 320.362C2.13106 322.129 -0.135853 324.161 -2.16062 326.422C-2.46482 326.704 -2.69777 327.054 -2.84033 327.443C-2.98288 327.833 -3.03096 328.25 -2.98062 328.662C-2.78724 329.176 -2.41421 329.602 -1.93062 329.862C-0.834624 330.488 0.380807 330.877 1.63674 331.002C2.89266 331.128 4.161 330.988 5.35938 330.592C7.74827 329.785 10.0108 328.644 12.0794 327.202L35.7494 312.252L23.4094 325.532C21.1394 327.982 18.2794 329.932 15.9194 332.312C14.8194 333.412 12.8194 335.082 12.5294 336.702C11.6694 341.542 22.4294 337.842 24.2594 337.032C27.738 335.453 31.001 333.437 33.9694 331.032C39.5294 326.612 44.2094 321.212 48.8594 315.852L34.8294 338.112C33.6597 339.814 32.6994 341.65 31.9694 343.582C31.5594 344.812 31.4794 346.432 32.5694 347.122C33.0271 347.364 33.5427 347.475 34.0594 347.442C36.8294 347.442 39.3494 345.902 41.5594 344.232C48.5594 338.942 53.8494 331.772 59.0494 324.712C56.9506 331.524 55.2807 338.461 54.0494 345.482C53.2894 349.932 56.9494 348.562 59.0494 346.682C62.4778 343.655 65.2074 339.918 67.0494 335.732C68.7494 331.872 70.9494 326.282 70.9494 322.002C70.9574 327.47 71.2913 332.933 71.9494 338.362C72.1594 340.142 72.7594 342.362 74.5194 342.682C75.9094 342.962 77.1994 341.872 78.1294 340.792C82.3157 335.945 84.6876 329.795 84.8394 323.392C85.4594 326.762 86.2094 330.392 88.6994 332.712C91.1894 335.032 96.0294 335.122 97.4594 332.012C98.1994 330.392 97.8094 328.502 97.4594 326.762C96.5394 322.762 95.616 318.762 94.6894 314.762C96.939 319.213 99.5617 323.464 102.529 327.472C103.159 328.332 104.079 329.282 105.119 329.022C105.67 328.848 106.132 328.468 106.409 327.962C108.569 324.562 106.659 320.132 104.749 316.582C106.389 317.352 107.529 318.902 109.009 319.942C110.489 320.982 112.839 321.342 113.929 319.892C114.252 319.375 114.417 318.776 114.404 318.167C114.392 317.558 114.202 316.965 113.859 316.462C113.151 315.471 112.258 314.625 111.229 313.972C104.869 309.305 98.7427 304.355 92.8494 299.122C89.4694 296.152 86.1794 293.042 83.9694 289.172Z" fill="#106DA3" stroke="#263238" stroke-miterlimit="10"/>
<path d="M50.2594 307.972C47.7794 310.382 45.2594 312.732 42.7494 315.052C40.2394 317.372 37.6694 319.682 35.0494 321.902C32.4294 324.122 29.8294 326.352 27.1594 328.512C24.4894 330.672 21.7694 332.772 19.0694 334.942C22.0925 333.255 25.0142 331.391 27.8194 329.362C29.2394 328.362 30.5894 327.302 31.9694 326.252C33.3494 325.202 34.6594 324.082 35.9694 322.942C38.5894 320.682 41.1027 318.309 43.5094 315.822C45.9336 313.36 48.1887 310.738 50.2594 307.972Z" fill="#263238"/>
<path d="M40.9894 303.812C37.9894 305.502 35.0594 307.282 32.1394 309.102C29.2194 310.922 26.3394 312.772 23.4594 314.622C20.5794 316.472 17.7194 318.382 14.8594 320.282C11.9994 322.182 9.17937 324.112 6.22937 325.872C9.40185 324.551 12.4705 322.993 15.4094 321.212C18.4094 319.492 21.2894 317.652 24.1894 315.792C27.0894 313.932 29.9094 311.992 32.7094 310.002C35.5094 308.012 38.3094 305.982 40.9894 303.812Z" fill="#263238"/>
<path d="M58.9194 314.362C55.3394 319.102 51.9894 323.962 48.5194 328.722C46.7994 331.122 45.0461 333.492 43.2594 335.832C41.4594 338.152 39.6394 340.472 37.6394 342.662C39.999 340.844 42.1639 338.786 44.0994 336.522C45.0994 335.422 46.0194 334.252 46.9594 333.102C47.8994 331.952 48.7794 330.742 49.6494 329.542C51.3794 327.132 53.0394 324.662 54.5794 322.132C56.1562 319.617 57.6047 317.024 58.9194 314.362Z" fill="#263238"/>
<path d="M68.1894 314.612C67.3094 317.002 66.5194 319.412 65.7494 321.812L63.4894 329.042C62.7594 331.462 61.9894 333.852 61.2294 336.252C60.4694 338.652 59.6794 341.042 58.6894 343.382C60.137 341.28 61.3319 339.014 62.2494 336.632C63.2494 334.282 64.0594 331.882 64.8194 329.452C65.5794 327.022 66.2294 324.582 66.8194 322.102C67.4019 319.63 67.8592 317.13 68.1894 314.612Z" fill="#263238"/>
<path d="M78.8194 312.182C78.8194 314.082 78.8194 315.962 78.8194 317.842C78.8194 319.722 78.8194 321.592 78.8194 323.452C78.8194 325.312 78.7294 327.182 78.6394 329.042C78.5494 330.902 78.3394 332.762 78.1194 334.662C78.8755 332.904 79.4129 331.061 79.7194 329.172C80.0169 327.286 80.1807 325.381 80.2094 323.472C80.2279 321.571 80.131 319.671 79.9194 317.782C79.7184 315.887 79.3503 314.013 78.8194 312.182Z" fill="#263238"/>
<path d="M87.5793 310.622C87.729 312.174 87.9661 313.717 88.2893 315.242C88.5793 316.762 88.9393 318.242 89.2893 319.762C89.6393 321.282 90.0893 322.762 90.5393 324.222C90.9893 325.682 91.4793 327.152 91.9393 328.652C92.0019 327.084 91.8878 325.514 91.5993 323.972C91.3593 322.432 91.0094 320.922 90.5993 319.412C90.1893 317.902 89.7793 316.412 89.2693 314.952C88.8026 313.473 88.238 312.026 87.5793 310.622Z" fill="#263238"/>
<path d="M97.0094 309.552C97.4046 310.8 97.8755 312.022 98.4194 313.212C98.9494 314.392 99.4994 315.562 100.079 316.712C100.659 317.862 101.259 319.002 101.879 320.142L103.739 323.562C103.639 322.24 103.346 320.939 102.869 319.702C102.435 318.465 101.918 317.259 101.319 316.092C100.718 314.922 100.05 313.787 99.3194 312.692C98.6339 311.586 97.8615 310.536 97.0094 309.552Z" fill="#263238"/>
<path d="M70.8094 320.782C68.4694 320.262 70.6694 314.202 70.6694 314.202C69.5103 315.754 68.265 317.24 66.9394 318.652C64.9394 320.762 60.5294 325.202 57.9394 323.252C55.3494 321.302 63.2694 311.112 63.2694 311.112C63.2694 311.112 59.4094 314.362 54.7994 317.622C39.4994 328.532 53.7994 307.292 53.7994 307.292C53.7994 307.292 45.4894 312.992 41.7994 314.992C30.1194 321.302 46.9694 301.532 46.9694 301.532C46.9694 301.532 35.8194 308.032 35.5394 306.172C35.2594 304.312 38.8194 300.362 38.8194 300.362C38.8194 300.362 22.2594 308.772 20.0594 308.362C20.3894 308.112 20.7194 307.862 21.0594 307.602C30.8094 300.092 40.9594 292.362 52.9494 289.362C63.0494 286.872 73.6394 287.992 83.9494 289.132C86.1594 293.002 89.4494 296.132 92.7794 299.082L93.9094 300.082L92.3194 303.532C92.3194 303.532 93.6994 310.532 91.5094 312.292C89.3194 314.052 85.1794 307.382 85.1794 307.382C85.1794 307.382 87.2394 317.782 84.5094 318.382C81.7794 318.982 79.7694 310.082 79.7694 310.082C79.0263 312.201 78.1168 314.257 77.0494 316.232C75.5294 318.982 73.1394 321.302 70.8094 320.782Z" fill="white" stroke="#263238" stroke-miterlimit="10"/>
<path d="M54.4094 295.362C54.4094 295.362 53.0194 299.792 54.4094 300.282C55.7994 300.772 59.8894 296.282 59.8894 296.282C59.8894 296.282 58.2194 303.402 60.9694 304.062C63.7194 304.722 66.9694 298.442 66.9694 298.442C66.9694 298.442 68.7594 303.182 71.1994 303.102C73.6394 303.022 74.6794 298.852 74.6794 298.852C74.6794 298.852 77.6794 302.802 79.7894 302.102C81.8994 301.402 81.7894 296.792 81.7894 296.792" fill="white"/>
<path d="M54.4094 295.362C54.4094 295.362 53.0194 299.792 54.4094 300.282C55.7994 300.772 59.8894 296.282 59.8894 296.282C59.8894 296.282 58.2194 303.402 60.9694 304.062C63.7194 304.722 66.9694 298.442 66.9694 298.442C66.9694 298.442 68.7594 303.182 71.1994 303.102C73.6394 303.022 74.6794 298.852 74.6794 298.852C74.6794 298.852 77.6794 302.802 79.7894 302.102C81.8994 301.402 81.7894 296.792 81.7894 296.792" stroke="#263238" stroke-miterlimit="10"/>
<path d="M92.8594 351.562L78.0794 364.942C77.9348 365.074 77.8257 365.24 77.762 365.426C77.6984 365.611 77.6822 365.809 77.7151 366.002C77.7479 366.195 77.8287 366.377 77.95 366.531C78.0713 366.684 78.2293 366.805 78.4094 366.882C78.5798 366.953 78.7648 366.983 78.949 366.969C79.1332 366.955 79.3116 366.898 79.4694 366.802L95.9394 356.802L92.8594 351.562Z" fill="#106DA3" stroke="#263238" stroke-miterlimit="10"/>
<path d="M146.669 374.092L147.509 394.002C147.518 394.199 147.477 394.395 147.389 394.571C147.302 394.748 147.171 394.899 147.01 395.012C146.848 395.125 146.661 395.195 146.465 395.216C146.269 395.237 146.071 395.208 145.889 395.132C145.719 395.062 145.568 394.952 145.45 394.811C145.331 394.67 145.249 394.502 145.209 394.322L140.769 375.582L146.669 374.092Z" fill="#106DA3" stroke="#263238" stroke-miterlimit="10"/>
<path d="M137.833 232.818L135.157 232.965L136.454 256.529L139.13 256.382L137.833 232.818Z" fill="#263238" stroke="#263238" stroke-miterlimit="10"/>
<path d="M159.809 251.092L115.589 253.532L114.949 244.262C114.854 242.535 115.448 240.842 116.602 239.553C117.755 238.265 119.373 237.488 121.099 237.392L152.299 235.672C154.027 235.579 155.721 236.176 157.009 237.331C158.297 238.486 159.074 240.105 159.169 241.832L159.809 251.092Z" fill="#106DA3" stroke="#263238" stroke-miterlimit="10"/>
<path d="M181.229 274.01L183.002 276.02L200.699 260.406L198.926 258.397L181.229 274.01Z" fill="#263238" stroke="#263238" stroke-miterlimit="10"/>
<path d="M171.269 255.432L200.569 288.642L206.859 282.742C207.503 282.177 208.028 281.49 208.405 280.721C208.782 279.953 209.004 279.117 209.058 278.262C209.112 277.408 208.997 276.551 208.719 275.741C208.441 274.931 208.006 274.184 207.439 273.542L186.769 250.112C185.626 248.816 184.015 248.026 182.289 247.917C180.564 247.809 178.867 248.389 177.569 249.532L171.269 255.432Z" fill="#106DA3" stroke="#263238" stroke-miterlimit="10"/>
<path d="M167.051 251.273L166.138 250.891L161.426 262.144L162.339 262.526L167.051 251.273Z" fill="#263238" stroke="#263238" stroke-miterlimit="10"/>
<path d="M168.129 252.412L164.409 250.842C164.202 250.756 164.013 250.629 163.855 250.469C163.696 250.31 163.571 250.12 163.487 249.912C163.402 249.704 163.36 249.481 163.362 249.256C163.364 249.031 163.411 248.809 163.499 248.602C163.586 248.394 163.712 248.206 163.872 248.048C164.032 247.889 164.221 247.764 164.429 247.679C164.638 247.595 164.861 247.552 165.086 247.554C165.31 247.557 165.533 247.603 165.739 247.692L169.489 249.262C169.697 249.348 169.885 249.475 170.044 249.635C170.202 249.794 170.327 249.984 170.412 250.192C170.497 250.4 170.539 250.623 170.537 250.848C170.535 251.073 170.488 251.295 170.399 251.502C170.313 251.713 170.186 251.905 170.024 252.066C169.862 252.227 169.669 252.354 169.457 252.439C169.246 252.524 169.019 252.565 168.791 252.56C168.563 252.556 168.338 252.505 168.129 252.412Z" fill="#263238" stroke="#263238" stroke-miterlimit="10"/>
<path d="M196.548 336.224C207.402 304.488 190.473 269.963 158.737 259.11C127.001 248.257 92.4763 265.185 81.6231 296.921C70.7699 328.657 87.6986 363.182 119.434 374.035C151.17 384.888 185.695 367.96 196.548 336.224Z" fill="#263238" stroke="#263238" stroke-miterlimit="10"/>
<path d="M176.799 353.279C197.247 332.831 197.247 299.678 176.799 279.23C156.351 258.783 123.198 258.783 102.75 279.23C82.3026 299.678 82.3026 332.831 102.751 353.279C123.198 373.727 156.351 373.727 176.799 353.279Z" fill="white" stroke="#263238" stroke-miterlimit="10"/>
<path d="M139.079 368.372C167.704 368.372 190.909 345.167 190.909 316.542C190.909 287.917 167.704 264.712 139.079 264.712C110.454 264.712 87.2494 287.917 87.2494 316.542C87.2494 345.167 110.454 368.372 139.079 368.372Z" fill="white" stroke="#263238" stroke-miterlimit="10"/>
<path d="M137.299 317.602L112.059 318.262L137.009 315.942L137.299 317.602Z" fill="#106DA3" stroke="#263238" stroke-miterlimit="10"/>
<path d="M140.549 317.552L164.959 351.412L137.979 317.732L140.549 317.552Z" fill="#106DA3" stroke="#263238" stroke-miterlimit="10"/>
<path d="M141.159 317.412C140.988 317.823 140.699 318.174 140.329 318.421C139.958 318.668 139.523 318.799 139.078 318.798C138.633 318.797 138.198 318.664 137.828 318.416C137.458 318.168 137.171 317.816 137.001 317.404C136.832 316.993 136.788 316.54 136.876 316.104C136.964 315.667 137.18 315.267 137.495 314.953C137.811 314.639 138.213 314.426 138.649 314.34C139.086 314.254 139.539 314.3 139.949 314.472C140.498 314.704 140.932 315.143 141.159 315.693C141.385 316.244 141.386 316.861 141.159 317.412Z" fill="#263238" stroke="#263238" stroke-miterlimit="10"/>
<path d="M185.829 336.112L183.059 334.962" stroke="#263238" stroke-miterlimit="10"/>
<path d="M95.1094 298.132L92.3394 296.972" stroke="#263238" stroke-miterlimit="10"/>
<path d="M189.649 313.012L186.649 313.232" stroke="#263238" stroke-miterlimit="10"/>
<path d="M91.5194 319.862L88.5194 320.072" stroke="#263238" stroke-miterlimit="10"/>
<path d="M179.599 286.092L177.199 287.902" stroke="#263238" stroke-miterlimit="10"/>
<path d="M100.969 345.182L98.5593 346.992" stroke="#263238" stroke-miterlimit="10"/>
<path d="M108.069 280.332L106.119 278.042" stroke="#263238" stroke-miterlimit="10"/>
<path d="M172.049 355.042L170.099 352.752" stroke="#263238" stroke-miterlimit="10"/>
<path d="M132.739 269.292L132.339 266.312" stroke="#263238" stroke-miterlimit="10"/>
<path d="M145.819 366.772L145.419 363.792" stroke="#263238" stroke-miterlimit="10"/>
<path d="M157.499 272.562L158.649 269.802" stroke="#263238" stroke-miterlimit="10"/>
<path d="M119.509 363.292L120.669 360.522" stroke="#263238" stroke-miterlimit="10"/>
<path d="M150.019 280.832L152.649 274.542H151.409L151.919 273.332H152.289L152.799 273.272L153.329 273.192C153.463 273.171 153.594 273.134 153.719 273.082L154.999 273.622L151.689 281.532L150.019 280.832Z" fill="#263238"/>
<path d="M152.919 282.052L153.399 280.902L156.509 278.782L157.179 278.322C157.385 278.181 157.576 278.02 157.749 277.842C157.914 277.667 158.047 277.464 158.139 277.242C158.229 277.066 158.257 276.866 158.219 276.672C158.195 276.6 158.156 276.535 158.104 276.48C158.052 276.424 157.989 276.381 157.919 276.352C157.845 276.32 157.765 276.304 157.684 276.304C157.604 276.304 157.524 276.32 157.449 276.352C157.298 276.412 157.169 276.517 157.079 276.652C156.966 276.817 156.872 276.995 156.799 277.182L156.639 277.572L155.049 276.902L155.229 276.482C155.408 276.054 155.662 275.661 155.979 275.322C156.271 275.024 156.649 274.825 157.059 274.752C157.541 274.69 158.03 274.767 158.469 274.972C158.77 275.073 159.046 275.234 159.282 275.445C159.517 275.657 159.707 275.914 159.839 276.202C159.943 276.487 159.988 276.79 159.971 277.092C159.954 277.395 159.875 277.691 159.739 277.962C159.614 278.266 159.438 278.547 159.219 278.792C158.998 279.027 158.75 279.236 158.479 279.412C158.209 279.602 157.919 279.802 157.609 280.002L155.269 281.552L157.579 282.552L157.049 283.832L152.919 282.052Z" fill="#263238"/>
<path d="M170.669 295.752L173.309 289.452H173.019H172.019L172.529 288.242H172.899L173.419 288.192L173.949 288.112C174.079 288.085 174.206 288.048 174.329 288.002L175.609 288.542L172.299 296.442L170.669 295.752Z" fill="#263238"/>
<path d="M177.959 316.102L178.439 314.952L181.559 312.832L182.219 312.372C182.425 312.231 182.615 312.07 182.789 311.892C182.958 311.718 183.093 311.515 183.189 311.292C183.271 311.114 183.299 310.916 183.269 310.722C183.245 310.649 183.204 310.583 183.15 310.527C183.097 310.472 183.032 310.429 182.959 310.402C182.885 310.37 182.805 310.354 182.724 310.354C182.644 310.354 182.564 310.37 182.489 310.402C182.34 310.46 182.213 310.565 182.129 310.702C182.012 310.865 181.918 311.043 181.849 311.232L181.679 311.622L180.099 310.952L180.279 310.532C180.45 310.1 180.705 309.705 181.029 309.372C181.318 309.076 181.692 308.877 182.099 308.802C182.581 308.739 183.07 308.815 183.509 309.022C183.81 309.124 184.087 309.286 184.324 309.497C184.561 309.708 184.753 309.965 184.889 310.252C184.99 310.537 185.033 310.84 185.016 311.142C184.999 311.444 184.922 311.74 184.789 312.012C184.66 312.316 184.481 312.596 184.259 312.842C184.042 313.077 183.797 313.285 183.529 313.462C183.259 313.652 182.969 313.852 182.659 314.052L180.309 315.602L182.629 316.602L182.089 317.882L177.959 316.102Z" fill="#263238"/>
<path d="M177.759 336.712C177.291 336.55 176.883 336.25 176.589 335.852C176.356 335.516 176.247 335.11 176.279 334.702C176.309 334.225 176.425 333.758 176.619 333.322L176.739 333.042L178.369 333.722L178.319 333.832L178.249 334.002C178.156 334.215 178.083 334.436 178.029 334.662C177.987 334.802 177.987 334.952 178.029 335.092C178.094 335.212 178.201 335.305 178.329 335.352C178.391 335.379 178.457 335.393 178.524 335.393C178.591 335.393 178.658 335.379 178.719 335.352C178.847 335.289 178.952 335.187 179.019 335.062C179.128 334.88 179.222 334.69 179.299 334.492C179.457 334.183 179.53 333.838 179.509 333.492C179.509 333.242 179.309 333.042 178.979 332.892H178.869L178.679 332.812L179.149 331.692H179.279L179.409 331.752C179.533 331.822 179.672 331.859 179.814 331.859C179.956 331.859 180.096 331.822 180.219 331.752C180.472 331.54 180.662 331.264 180.769 330.952C180.875 330.712 180.933 330.454 180.939 330.192C180.929 330.094 180.89 330.002 180.828 329.925C180.766 329.849 180.683 329.792 180.589 329.762C180.502 329.713 180.4 329.696 180.301 329.715C180.203 329.733 180.114 329.785 180.049 329.862C179.874 330.054 179.739 330.278 179.649 330.522L179.569 330.722L179.479 330.932L177.849 330.242L178.049 329.762C178.21 329.342 178.471 328.968 178.809 328.672C179.109 328.419 179.479 328.265 179.869 328.232C180.302 328.206 180.734 328.285 181.129 328.462C181.538 328.624 181.904 328.877 182.199 329.202C182.45 329.48 182.608 329.83 182.649 330.202C182.684 330.645 182.604 331.089 182.419 331.492C182.256 331.888 181.99 332.233 181.649 332.492C181.392 332.704 181.062 332.808 180.729 332.782C180.885 332.928 181.007 333.105 181.089 333.302C181.182 333.53 181.216 333.777 181.189 334.022C181.163 334.368 181.075 334.707 180.929 335.022C180.756 335.462 180.501 335.866 180.179 336.212C179.902 336.517 179.534 336.724 179.129 336.802C178.673 336.899 178.199 336.868 177.759 336.712Z" fill="#263238"/>
<path d="M166.299 351.362L167.039 349.582L164.609 348.582L165.109 347.382L169.239 343.312L171.129 344.112L169.069 349.032L169.799 349.332L169.299 350.542L168.559 350.242L167.819 352.012L166.299 351.362ZM166.359 347.872L167.549 348.372L168.929 345.082L166.359 347.872Z" fill="#263238"/>
<path d="M144.129 360.362C143.658 360.2 143.245 359.905 142.939 359.512C142.728 359.179 142.643 358.782 142.699 358.392C142.769 357.927 142.9 357.473 143.089 357.042L144.659 357.692C144.551 357.937 144.464 358.192 144.399 358.452C144.353 358.609 144.353 358.775 144.399 358.932C144.47 359.061 144.589 359.158 144.729 359.202C144.803 359.233 144.883 359.243 144.962 359.233C145.042 359.222 145.116 359.191 145.179 359.142C145.335 359.002 145.461 358.832 145.549 358.642C145.659 358.402 145.799 358.112 145.939 357.762C146.039 357.531 146.122 357.294 146.189 357.052C146.233 356.871 146.233 356.683 146.189 356.502C146.172 356.421 146.133 356.345 146.077 356.284C146.02 356.222 145.949 356.177 145.869 356.152C145.796 356.115 145.716 356.096 145.634 356.096C145.553 356.096 145.472 356.115 145.399 356.152C145.211 356.258 145.056 356.414 144.949 356.602L143.539 356.012L145.589 351.512L149.289 353.062L148.709 354.432L146.329 353.432L145.559 355.022C145.705 354.952 145.868 354.924 146.029 354.942C146.247 354.949 146.462 354.986 146.669 355.052C147.049 355.146 147.38 355.378 147.599 355.702C147.804 356.041 147.895 356.437 147.859 356.832C147.82 357.361 147.688 357.879 147.469 358.362C147.306 358.751 147.115 359.129 146.899 359.492C146.724 359.795 146.493 360.063 146.219 360.282C145.957 360.483 145.639 360.599 145.309 360.612C144.902 360.62 144.498 360.534 144.129 360.362Z" fill="#263238"/>
<path d="M122.409 358.452C121.957 358.287 121.566 357.987 121.289 357.592C121.062 357.227 120.95 356.802 120.969 356.372C120.993 355.878 121.109 355.394 121.309 354.942L122.499 352.082C122.69 351.612 122.946 351.171 123.259 350.772C123.528 350.439 123.896 350.201 124.309 350.092C124.817 350.008 125.338 350.085 125.799 350.312C126.222 350.462 126.601 350.717 126.899 351.052C127.122 351.314 127.243 351.648 127.239 351.992C127.228 352.407 127.132 352.815 126.959 353.192C126.955 353.215 126.955 353.239 126.959 353.262V353.332L125.429 352.682C125.539 352.451 125.613 352.205 125.649 351.952C125.649 351.772 125.569 351.642 125.349 351.552C125.287 351.52 125.219 351.504 125.149 351.504C125.08 351.504 125.011 351.52 124.949 351.552C124.796 351.657 124.675 351.802 124.599 351.972C124.435 352.277 124.288 352.59 124.159 352.912L123.869 353.612C124.017 353.503 124.196 353.447 124.379 353.452C124.602 353.454 124.823 353.498 125.029 353.582C125.396 353.704 125.708 353.952 125.909 354.282C126.065 354.591 126.131 354.937 126.099 355.282C126.06 355.71 125.952 356.129 125.779 356.522C125.58 357.018 125.31 357.482 124.979 357.902C124.703 358.244 124.325 358.489 123.899 358.602C123.4 358.724 122.874 358.671 122.409 358.452ZM122.929 357.262C122.989 357.294 123.056 357.311 123.124 357.311C123.192 357.311 123.259 357.294 123.319 357.262C123.458 357.161 123.568 357.027 123.639 356.872C123.749 356.682 123.859 356.442 123.989 356.152C124.085 355.927 124.169 355.696 124.239 355.462C124.302 355.303 124.322 355.131 124.299 354.962C124.279 354.89 124.24 354.824 124.188 354.77C124.136 354.716 124.071 354.675 123.999 354.652C123.921 354.632 123.838 354.632 123.759 354.652C123.68 354.636 123.599 354.636 123.519 354.652L123.349 354.742L122.809 356.032C122.736 356.2 122.679 356.374 122.639 356.552C122.604 356.697 122.604 356.848 122.639 356.992C122.661 357.053 122.695 357.109 122.74 357.155C122.785 357.202 122.839 357.238 122.899 357.262H122.929Z" fill="#263238"/>
<path d="M101.889 345.262L106.409 339.362L104.249 338.452L104.769 337.212L108.519 338.782L108.049 339.912L103.489 345.972L101.889 345.262Z" fill="#263238"/>
<path d="M95.0294 322.892C94.5703 322.729 94.1701 322.433 93.8794 322.042C93.6491 321.697 93.5368 321.286 93.5594 320.872C93.5926 320.399 93.7077 319.936 93.8994 319.502C93.9835 319.314 94.0839 319.133 94.1994 318.962C94.3069 318.797 94.4345 318.646 94.5794 318.512C94.7149 318.387 94.8703 318.286 95.0394 318.212C95.2072 318.138 95.3865 318.095 95.5694 318.082C95.4171 317.816 95.3282 317.518 95.3094 317.212C95.2759 316.806 95.3411 316.398 95.4994 316.022C95.651 315.624 95.8902 315.265 96.1994 314.972C96.4783 314.724 96.8281 314.57 97.1994 314.532C97.6215 314.498 98.0451 314.574 98.4294 314.752C98.8206 314.904 99.1653 315.156 99.4294 315.482C99.6544 315.769 99.787 316.118 99.8094 316.482C99.8107 316.905 99.7149 317.322 99.5294 317.702C99.3833 318.086 99.1466 318.429 98.8394 318.702C98.6108 318.905 98.3362 319.049 98.0394 319.122C98.1583 319.258 98.253 319.414 98.3194 319.582C98.3818 319.756 98.4188 319.938 98.4294 320.122C98.4537 320.318 98.4537 320.516 98.4294 320.712C98.3878 320.917 98.3276 321.118 98.2494 321.312C98.0865 321.756 97.8385 322.163 97.5194 322.512C97.2562 322.809 96.9063 323.015 96.5194 323.102C96.0129 323.185 95.4931 323.112 95.0294 322.892ZM95.5294 321.692C95.5986 321.734 95.6782 321.757 95.7594 321.757C95.8405 321.757 95.9202 321.734 95.9894 321.692C96.1325 321.587 96.249 321.45 96.3294 321.292C96.4213 321.138 96.5015 320.978 96.5694 320.812C96.6558 320.617 96.7293 320.417 96.7894 320.212C96.8277 320.041 96.8277 319.863 96.7894 319.692C96.7687 319.616 96.7312 319.546 96.6797 319.487C96.6281 319.428 96.5639 319.381 96.4918 319.351C96.4196 319.32 96.3414 319.306 96.2631 319.309C96.1848 319.313 96.1083 319.335 96.0394 319.372C95.8964 319.477 95.78 319.614 95.6994 319.772C95.5906 319.956 95.4938 320.146 95.4094 320.342C95.3422 320.508 95.2855 320.679 95.2394 320.852C95.1796 321.022 95.1624 321.204 95.1894 321.382C95.2138 321.459 95.2581 321.528 95.3178 321.583C95.3775 321.637 95.4505 321.675 95.5294 321.692ZM97.0694 318.022C97.1191 318.047 97.1738 318.06 97.2294 318.06C97.2849 318.06 97.3396 318.047 97.3894 318.022C97.5239 317.94 97.6369 317.827 97.7194 317.692C97.8498 317.493 97.9604 317.282 98.0494 317.062C98.1505 316.847 98.1985 316.61 98.1894 316.372C98.1897 316.288 98.1639 316.207 98.1154 316.139C98.067 316.07 97.9984 316.019 97.9194 315.992C97.8428 315.956 97.7574 315.944 97.6738 315.956C97.5902 315.969 97.5122 316.005 97.4494 316.062C97.2747 316.217 97.1408 316.413 97.0594 316.632C96.9619 316.851 96.8849 317.079 96.8294 317.312C96.793 317.47 96.793 317.634 96.8294 317.792C96.8511 317.845 96.8837 317.893 96.925 317.932C96.9663 317.972 97.0155 318.003 97.0694 318.022Z" fill="#263238"/>
<path d="M97.0394 302.902C96.6177 302.749 96.24 302.495 95.9394 302.162C95.7136 301.898 95.5926 301.56 95.5994 301.212C95.6161 300.801 95.7112 300.397 95.8794 300.022V299.962V299.892L97.3994 300.532C97.2928 300.767 97.222 301.016 97.1894 301.272C97.1894 301.452 97.2894 301.582 97.5094 301.682C97.57 301.712 97.6367 301.728 97.7044 301.728C97.772 301.728 97.8388 301.712 97.8994 301.682C98.0478 301.57 98.1649 301.422 98.2394 301.252C98.3594 301.032 98.4994 300.722 98.6694 300.322L98.9694 299.612C98.8153 299.714 98.6339 299.766 98.4494 299.762C98.235 299.758 98.0225 299.721 97.8194 299.652C97.4445 299.523 97.1309 299.259 96.9394 298.912C96.7782 298.573 96.7159 298.195 96.7594 297.822C96.8057 297.388 96.9169 296.963 97.0894 296.562C97.2791 296.068 97.5532 295.612 97.8994 295.212C98.1814 294.888 98.56 294.664 98.9794 294.572C99.4588 294.493 99.951 294.562 100.389 294.772C100.838 294.94 101.229 295.231 101.519 295.612C101.746 295.956 101.861 296.361 101.849 296.772C101.829 297.263 101.713 297.745 101.509 298.192L100.279 301.142C100.088 301.609 99.8325 302.047 99.5194 302.442C99.2642 302.766 98.9149 303.004 98.5194 303.122C98.0152 303.209 97.4965 303.132 97.0394 302.902ZM98.8694 298.592C98.9263 298.616 98.9875 298.629 99.0494 298.629C99.1112 298.629 99.1725 298.616 99.2294 298.592C99.3231 298.557 99.4134 298.513 99.4994 298.462L100.039 297.172C100.108 297.003 100.165 296.829 100.209 296.652C100.244 296.511 100.244 296.363 100.209 296.222C100.187 296.157 100.15 296.099 100.101 296.05C100.053 296.002 99.994 295.965 99.9294 295.942C99.872 295.908 99.8063 295.89 99.7394 295.89C99.6725 295.89 99.6068 295.908 99.5494 295.942C99.4055 296.039 99.2913 296.174 99.2194 296.332C99.0889 296.564 98.9753 296.804 98.8794 297.052C98.7793 297.273 98.6924 297.5 98.6194 297.732C98.5633 297.892 98.5429 298.063 98.5594 298.232C98.5712 298.315 98.6067 298.394 98.6616 298.457C98.7166 298.521 98.7887 298.568 98.8694 298.592Z" fill="#263238"/>
<path d="M108.469 287.012L111.099 280.712H110.809H109.809L110.309 279.502H110.679L111.199 279.452C111.378 279.433 111.555 279.403 111.729 279.362C111.863 279.343 111.994 279.31 112.119 279.262L113.399 279.792L110.089 287.702L108.469 287.012Z" fill="#263238"/>
<path d="M113.589 289.362C113.168 289.2 112.798 288.927 112.519 288.572C112.283 288.252 112.147 287.869 112.129 287.472C112.114 287.032 112.2 286.594 112.379 286.192L113.879 282.602C114.046 282.182 114.298 281.8 114.619 281.482C114.895 281.217 115.243 281.039 115.619 280.972C116.075 280.93 116.534 280.999 116.958 281.173C117.381 281.347 117.755 281.621 118.049 281.972C118.289 282.292 118.416 282.682 118.409 283.082C118.412 283.534 118.316 283.981 118.129 284.392L116.629 287.972C116.47 288.379 116.22 288.745 115.899 289.042C115.604 289.311 115.235 289.485 114.839 289.542C114.414 289.591 113.983 289.529 113.589 289.362ZM114.199 287.902C114.26 287.937 114.329 287.956 114.399 287.956C114.47 287.956 114.539 287.937 114.599 287.902C114.714 287.827 114.807 287.724 114.869 287.602C114.932 287.495 114.989 287.385 115.039 287.272L116.509 283.762L116.649 283.382C116.679 283.24 116.679 283.094 116.649 282.952C116.632 282.882 116.598 282.818 116.549 282.765C116.5 282.713 116.438 282.674 116.369 282.652C116.307 282.617 116.236 282.599 116.164 282.599C116.093 282.599 116.022 282.617 115.959 282.652C115.841 282.734 115.745 282.844 115.679 282.972L115.499 283.342L114.029 286.852C113.984 286.969 113.948 287.09 113.919 287.212C113.89 287.344 113.89 287.48 113.919 287.612C113.941 287.675 113.978 287.731 114.027 287.777C114.076 287.822 114.135 287.855 114.199 287.872V287.902Z" fill="#263238"/>
<path d="M130.319 279.162L132.949 272.862H132.659H131.659L132.169 271.652H132.539H133.049C133.239 271.652 133.409 271.602 133.579 271.562C133.712 271.539 133.842 271.505 133.969 271.462L135.249 271.992L131.939 279.902L130.319 279.162Z" fill="#263238"/>
<path d="M134.109 280.752L136.749 274.452H136.459H135.459L135.959 273.242H136.329L136.849 273.192C137.029 273.192 137.209 273.142 137.379 273.102C137.511 273.077 137.642 273.044 137.769 273.002L139.049 273.532L135.739 281.442L134.109 280.752Z" fill="#263238"/>
<path d="M200.209 262.762C200.209 262.762 193.079 253.972 191.849 251.882C190.619 249.792 194.109 243.362 194.709 239.362C195.309 235.362 194.709 233.032 187.709 228.272C185.87 227.019 183.964 225.867 181.999 224.822L174.449 221.582C172.098 220.82 169.704 220.195 167.279 219.712C158.989 218.092 156.889 219.322 154.489 222.532C152.089 225.742 149.939 232.772 147.579 233.362C145.219 233.952 133.949 235.042 133.949 235.042" stroke="#263238" stroke-width="2" stroke-linecap="round" stroke-linejoin="round"/>
</g>
<defs>
<clipPath id="clip0_2010_20">
<rect width="500" height="500" fill="white"/>
</clipPath>
</defs>
</svg>
